PathFileType	4	(X/Y/Z)	walk-thru1-1-TP.trc
DataRate	CameraRate	NumFrames	NumMarkers	Units	OrigDataRate	OrigDataStartFrame	OrigNumFrames
120.00	120.00	       6	60	mm	120.00	109	       432
Frame#	Time	Top.Head			Front.Head			Rear.Head			Jaw			C7			R.Clavicle			L.Clavicle			R.Shoulder			L.Shoulder			R.Scapula			L.Scapula			R.Scap.Inf			R.Biceps.Lateral			R.Elbow			R.Elbow.Medial			R.Forearm			R.Ulna			R.Radius			R.Wrist			R.Thumb.M1			R.Thumb.M2			R.Thumb.M3			R.Finger3.M1			R.Finger3.M2			R.Finger3.M3			L.Biceps.Lateral			L.Elbow			L.Elbow.Medial			L.Forearm			L.Ulna			L.Radius			L.Wrist			L.Thumb.M1			L.Thumb.M2			L.Thumb.M3			L.Finger3.M1			L.Finger3.M2			L.Finger3.M3			V.Sacral			R.ASIS			L.ASIS			R.Thigh			R.Thigh.Front			R.Knee			R.Knee.Medial			R.Shank			R.Ankle			R.Ankle.Medial			R.Heel			R.Toe			R.MedFoot			L.Thigh			L.Knee			L.Knee.Medial			L.Shank			L.Ankle			L.Ankle.Medial			L.Heel			L.Toe			L.MedFoot			V_mid_ASIS			V_R_Knee_JC			V_L_Knee_JC			V_R_Elbow_JC			V_L_Elbow_JC			V_R_Ankle_JC			V_L_Ankle_JC			V_R_Wrist_JC			V_L_Wrist_JC			V_R_ScaTrpz_1stMC_JC			V_R_1stMC_1stPP_JC			V_R_1stPP_1stDP_JC			V_R_LunCap_3rdMC_JC			V_R_3rdMC_3rdPP_JC			V_R_3rdPP_3rdMP_JC			V_R_3rdMP_3rdDP_JC			V_L_ScaTrpz_1stMC_JC			V_L_1stMC_1stPP_JC			V_L_1stPP_1stDP_JC			V_L_LunCap_3rdMC_JC			V_L_3rdMC_3rdPP_JC			V_L_3rdPP_3rdMP_JC			V_L_3rdMP_3rdPP_JC			V_ROOT_JC			V_R_Hip_JC			V_L_Hip_JC			V_R_GlenHum_JC			V_L_GlenHum_JC			V_ForeHead_Ctr			V_Vertex			V_Sagit_Lambdoid_Suture			V_R_FrontoTemp			V_L_FrontoTemporal			V_R_ParietalOccip			V_L_ParietalOcciptal			V_R_Temporal			V_L_Temporal			V_mid_FrontRearHead			V_mid_RLGlenHumCtrs			V_C7_vert			V_C1_vert			V_Mid_Hip			
		X1	Y1	Z1	X2	Y2	Z2	X3	Y3	Z3	X4	Y4	Z4	X5	Y5	Z5	X6	Y6	Z6	X7	Y7	Z7	X8	Y8	Z8	X9	Y9	Z9	X10	Y10	Z10	X11	Y11	Z11	X12	Y12	Z12	X13	Y13	Z13	X14	Y14	Z14	X15	Y15	Z15	X16	Y16	Z16	X17	Y17	Z17	X18	Y18	Z18	X19	Y19	Z19	X20	Y20	Z20	X21	Y21	Z21	X22	Y22	Z22	X23	Y23	Z23	X24	Y24	Z24	X25	Y25	Z25	X26	Y26	Z26	X27	Y27	Z27	X28	Y28	Z28	X29	Y29	Z29	X30	Y30	Z30	X31	Y31	Z31	X32	Y32	Z32	X33	Y33	Z33	X34	Y34	Z34	X35	Y35	Z35	X36	Y36	Z36	X37	Y37	Z37	X38	Y38	Z38	X39	Y39	Z39	X40	Y40	Z40	X41	Y41	Z41	X42	Y42	Z42	X43	Y43	Z43	X44	Y44	Z44	X45	Y45	Z45	X46	Y46	Z46	X47	Y47	Z47	X48	Y48	Z48	X49	Y49	Z49	X50	Y50	Z50	X51	Y51	Z51	X52	Y52	Z52	X53	Y53	Z53	X54	Y54	Z54	X55	Y55	Z55	X56	Y56	Z56	X57	Y57	Z57	X58	Y58	Z58	X59	Y59	Z59	X60	Y60	Z60	

109	0.900	738.33508	53.72781	1793.75867	635.12738	43.08116	1682.60242	861.71118	50.07148	1692.31238	675.58624	43.80310	1517.58240	872.49762	41.80260	1555.81799	777.61542	160.74632	1458.82910	761.88751	-66.63483	1466.08020	824.10919	245.62273	1452.18774	828.81207	-162.17232	1480.19690	926.07477	128.16452	1471.25586	922.18884	-37.55584	1477.19727	974.35876	132.94469	1383.95752	882.14532	300.31436	1277.08313	924.96594	315.30884	1126.81506	937.44836	224.51376	1109.01807	837.83594	266.93607	1010.63470	874.08295	306.10815	909.50769	810.16553	247.43141	879.57452	817.70587	286.62579	830.72900	799.33569	243.52806	847.31335	763.02350	210.38115	806.47723	726.97528	205.20656	779.17920	775.97522	287.14023	762.04126	758.55432	248.89008	710.26941	764.82770	202.56403	684.30237	842.91534	-230.77490	1329.76770	836.57806	-280.82697	1153.76062	878.23877	-213.98407	1125.17529	747.09839	-247.62170	1067.63721	771.73212	-266.32587	968.66089	693.37219	-210.32370	941.99341	683.57129	-239.08406	884.10992	668.89178	-191.61852	886.55170	658.20520	-151.51904	842.86499	632.42780	-149.78574	787.61829	645.19818	-242.63202	816.78790	636.76593	-217.16458	762.05682	644.23798	-193.42079	716.03424	964.74030	25.45125	1076.60413	870.70331	214.17038	1016.16241	863.13232	-160.20032	1027.79712	738.84882	174.39378	628.14246	642.74011	87.72803	581.61835	683.76453	141.11426	512.20740	680.59583	27.01035	513.82605	624.28339	101.03658	342.34131	654.52222	129.19135	71.93597	617.37433	37.12317	101.07931	702.22162	67.18892	44.30338	477.62823	91.34270	70.37894	536.12366	53.64844	82.65356	881.09015	-146.70847	647.64258	893.81628	-122.62762	489.62180	885.84814	-7.92029	491.33057	959.91406	-65.06358	301.25674	1138.57275	-80.27741	109.35243	1097.99463	12.56437	140.39284	1193.83105	-19.11619	115.63135	973.89215	-28.17945	48.62127	1024.96277	-3.36332	82.33981																																																																																																																															
110	0.908	731.93774	54.02761	1793.27173	628.72772	45.36216	1683.05859	855.66199	51.77774	1691.59229	669.44421	44.26394	1517.61279	865.93060	43.05684	1555.61975	770.77576	161.81021	1458.88721	755.74036	-65.83769	1466.03455	817.80365	248.60616	1452.91248	823.84540	-160.36879	1479.51306	918.88794	128.58148	1470.08154	915.31543	-36.77274	1477.05762	968.34229	134.82669	1383.61780	874.46204	301.36032	1276.95593	916.04138	314.76755	1125.92603	930.28101	225.92937	1108.96033	829.32050	269.04416	1009.72882	865.95978	307.37885	909.92706	801.51703	250.37860	879.35730	809.56183	287.22208	830.51874	791.68451	243.12671	846.98297	754.62604	212.00511	805.93933	719.34021	206.47575	778.55951	768.08252	288.00497	761.16980	751.47192	249.05107	709.49011	757.64111	205.10785	682.67163	837.49298	-228.09813	1328.92261	831.20306	-279.49402	1152.69324	873.88550	-214.47061	1124.72852	742.27844	-247.80142	1067.29004	768.29315	-265.95374	967.58813	689.98669	-209.91237	940.04736	680.86072	-238.72997	881.44067	665.09424	-191.57805	884.54285	654.80481	-151.73590	840.81140	629.68542	-150.63753	786.18970	642.31616	-243.53676	814.83777	635.08563	-218.18877	760.08759	642.54785	-194.13550	713.79602	958.79651	26.58959	1076.07898	862.96118	215.62802	1016.19238	856.18292	-159.05977	1027.30786	730.50946	175.40730	629.67444	634.79419	87.08355	583.27954	673.23541	142.31572	513.43671	673.76239	26.00476	514.34467	617.89825	102.60017	341.95273	651.77209	130.18333	72.08697	615.68091	36.89066	100.75912	700.75763	68.80991	44.73289	476.44769	86.76680	64.86263	534.81512	50.38689	80.35100	872.56744	-146.75084	647.38971	885.33398	-123.19681	489.51990	877.20612	-8.44079	489.93271	954.63379	-65.90347	301.70667	1136.69934	-80.18668	112.80039	1095.26160	13.01437	142.97211	1191.12305	-19.55027	120.31265	973.73541	-28.34071	48.88605	1023.51056	-3.38796	83.51404																																																																																																																															
111	0.917	725.21094	55.15377	1792.49561	622.24878	44.48994	1682.36584	849.31122	51.34555	1692.07068	662.19019	45.45338	1518.38257	859.63202	43.74253	1555.75647	763.44586	163.45387	1459.34180	749.09088	-64.27308	1465.72900	810.17047	248.31866	1451.95959	817.02521	-160.56071	1478.62231	912.04584	130.84544	1470.69958	908.07031	-34.68048	1477.19458	960.29242	136.21529	1382.89270	868.35858	303.20599	1276.50195	908.07166	316.41803	1124.32666	923.16016	227.04930	1108.29639	822.98004	270.61310	1009.31415	857.09357	307.81860	908.56403	793.88379	249.70404	878.75830	800.93286	286.47742	830.42560	782.78662	245.27058	846.36542	746.53235	211.92450	805.96777	710.88025	208.31186	778.69617	759.64441	288.35458	760.45416	743.01715	249.94232	709.29657	749.94507	204.92046	681.96649	831.16077	-227.13898	1328.67236	826.34167	-278.30444	1152.84546	868.80194	-212.14803	1123.87170	737.46552	-245.40535	1066.55261	765.05151	-264.02350	966.23926	685.44305	-209.77325	938.96686	678.23425	-238.57919	879.98981	661.29803	-191.38945	881.67926	651.60895	-151.18399	839.06708	627.55603	-150.68808	783.19183	640.19788	-244.12776	812.94342	632.85095	-218.48975	757.98260	640.68707	-194.26166	711.29340	950.82568	27.86310	1076.17700	855.27411	216.12558	1016.62836	850.68140	-159.28732	1026.72485	721.46997	175.43675	629.93329	625.55719	85.58579	586.24646	663.55817	141.24536	514.19843	666.09088	26.07205	514.74371	610.59753	101.13657	341.38510	649.94635	130.76802	73.03767	614.37634	36.30661	100.04887	700.25647	68.52123	45.41999	474.81439	85.42737	64.03754	534.31995	50.93344	78.79089	864.89594	-146.85190	647.09973	878.56116	-124.83112	490.69202	868.33844	-9.58352	488.56989	947.55219	-68.58767	301.35486	1134.39819	-80.65570	116.62743	1091.56909	12.32902	146.22092	1188.71838	-20.39786	125.83348	973.75427	-27.71185	48.81670	1021.02484	-3.36285	83.81118																																																																																																																															
112	0.925	718.69861	57.25408	1794.00952	615.06665	47.69012	1682.92334	841.25085	53.39997	1692.18762	654.74811	46.25338	1518.26465	851.13910	45.92726	1556.29138	756.96704	164.46884	1460.09949	742.31189	-63.50919	1466.14355	803.63971	251.03920	1452.01392	810.37299	-158.31494	1478.80432	904.89990	131.96477	1470.52551	900.89801	-33.41925	1477.09216	953.10052	137.92130	1383.71155	859.79236	302.74188	1275.79089	901.07849	317.31024	1124.04150	914.27289	228.65039	1107.43542	814.71082	269.93265	1008.67297	849.59216	309.66592	908.38562	786.82996	250.22963	878.22247	792.99066	289.25079	829.84229	775.58478	244.14531	846.25098	737.94128	213.02864	805.66760	702.69019	208.36069	777.58575	751.17236	290.16260	759.96008	733.78485	251.66888	709.21198	742.64124	207.61893	681.87250	826.14386	-226.62094	1329.03687	821.34094	-276.49429	1152.65833	863.62891	-209.78110	1123.67603	733.04877	-245.56433	1065.31018	761.32269	-263.25079	965.72809	682.91296	-208.36336	936.23090	675.20892	-239.04802	878.64001	659.35449	-190.64899	880.34125	649.15527	-151.34081	836.94269	625.87469	-150.47487	781.15527	638.18640	-243.65536	810.24347	631.50958	-219.01457	755.55151	639.45740	-194.90717	709.49896	942.73157	28.98286	1077.11890	848.11597	217.27422	1017.21417	840.63654	-157.67781	1026.78796	710.97400	175.38705	631.11255	615.68762	84.13617	587.32080	653.27423	142.54617	515.20758	659.54333	27.83272	515.88220	605.20801	100.53218	341.66479	648.67694	129.95953	73.21548	613.86810	36.36767	99.36956	699.98041	68.51411	46.08864	472.04306	87.10108	63.43493	533.31488	52.11182	77.78065	856.34857	-147.13948	646.48480	868.96246	-125.74796	489.17438	858.83411	-10.83326	487.43130	941.85773	-69.52326	302.07242	1131.22839	-81.16518	120.15706	1087.73047	12.48419	148.05728	1184.91492	-20.32916	131.66208	973.80682	-27.61051	48.94125	1020.11139	-2.94998	84.58926																																																																																																																															
113	0.933	711.18005	58.66272	1794.17712	608.24365	47.60017	1683.84399	834.85010	54.49572	1691.94678	648.05042	47.60001	1517.68188	844.74170	46.23959	1556.64966	749.82520	165.62526	1459.70410	735.26532	-61.89290	1466.44922	796.06616	250.32903	1452.05762	802.57617	-157.95258	1479.87012	898.29236	133.66608	1471.28589	894.08289	-32.16296	1477.45935	946.13489	139.16853	1383.53479	852.43750	304.91794	1276.24292	893.16711	318.26590	1123.86523	906.30841	229.57718	1107.41919	806.13367	271.54715	1008.98187	841.85516	310.41226	908.19208	778.49780	250.86920	878.13580	784.44971	289.54980	829.76312	767.76068	245.75226	845.60004	731.20081	213.55333	805.10675	695.27692	209.80011	778.15454	742.83917	291.67383	760.58813	724.86133	252.47069	709.07465	733.93475	206.42816	681.79718	819.60010	-223.29138	1329.23022	815.46490	-274.86060	1152.54517	857.52972	-208.11594	1124.23853	728.80511	-244.68309	1064.39294	757.75128	-262.81784	965.18927	679.51984	-208.23840	934.86731	672.52936	-238.37376	877.62231	655.82129	-191.80376	878.72241	646.83557	-151.84947	834.38214	623.65472	-151.43649	778.72931	636.99237	-243.60507	809.06122	630.50378	-219.90030	754.14624	639.24359	-195.24130	707.64270	936.09668	28.86906	1078.12329	839.71887	218.24422	1018.96082	833.12390	-156.61526	1026.46216	700.91919	175.85114	633.59253	605.91998	84.72794	587.50873	643.79852	143.00108	516.15552	650.69690	28.92815	516.76367	599.49603	101.16672	340.07330	648.62476	129.79774	73.15324	612.14496	36.40793	99.26303	699.03076	69.10703	46.34917	469.44785	91.39998	61.40729	532.31451	53.08656	77.28847	847.00629	-147.87109	646.26215	858.96179	-126.59789	488.62683	848.15558	-11.77343	487.47342	935.42444	-70.88304	302.87485	1127.91516	-80.69835	124.32061	1082.15149	11.41596	152.11996	1181.28918	-19.73107	137.43024	973.61707	-27.17879	49.09964	1018.15515	-3.43519	85.07923																																																																																																																															
114	0.942	703.90686	59.08287	1794.06909	600.88782	49.36456	1684.29639	827.89893	55.81758	1692.38477	641.96173	48.65171	1518.18579	838.12115	47.88557	1556.92249	743.65680	167.01422	1459.86499	727.79822	-60.51936	1467.18237	789.48352	253.85905	1454.25134	796.68677	-156.89810	1479.73584	890.70087	134.71980	1470.83569	887.30438	-31.47714	1477.21057	938.98712	139.55518	1383.21472	845.23456	306.59674	1275.96082	884.59827	319.45706	1124.43665	899.35083	230.11241	1108.83728	797.71509	273.15201	1009.09802	833.05603	310.71793	908.81281	769.10956	252.83446	878.78131	776.73120	290.93390	830.19122	759.97131	246.30133	845.87720	721.55432	214.95573	805.79865	686.92371	209.77695	778.32330	735.10449	291.06036	760.38696	717.32092	253.47807	709.28522	724.76923	209.11848	681.69086	813.35809	-222.41913	1329.06531	811.48352	-272.93417	1154.09204	852.42242	-206.46687	1125.17078	723.91315	-242.98148	1063.99109	755.24799	-261.26511	965.45099	676.10193	-208.96777	934.17792	669.80078	-237.84222	875.89142	653.64984	-191.29398	877.50555	643.92053	-151.63286	833.58429	621.11127	-152.20721	776.49963	634.78699	-245.12418	807.25165	629.66412	-220.56862	752.72778	638.93701	-195.95325	705.73224	928.21722	29.51334	1078.80298	833.19910	218.00455	1019.20093	827.35474	-156.22160	1026.07373	689.50616	173.37183	634.28363	596.58252	84.56459	586.29895	635.06818	144.14505	516.47620	641.11035	28.72499	517.63159	594.29504	102.44312	339.01343	647.36768	130.61058	73.28216	611.31738	36.97398	99.33323	698.33899	69.52859	46.70652	466.99396	94.60676	60.52945	531.44983	53.48282	77.49372	837.73114	-148.31049	645.46198	849.19464	-128.36121	488.60287	837.43903	-13.33322	485.97028	928.01208	-71.09502	303.43625	1124.21509	-80.78491	129.22780	1078.22485	11.01126	155.29401	1176.56396	-19.59827	143.72969	973.40515	-27.12446	49.30482	1015.75525	-2.71756	85.51379																																																																																																																															
